<svg xmlns="http://www.w3.org/2000/svg" viewBox="0 0 340 470" font-family="Georgia, serif">
<rect width="340" height="470" rx="20" fill="#FBF8F4" stroke="#B98A4B" stroke-width="2"/>
<rect x="0" y="0" width="340" height="12" rx="6" fill="#B98A4B"/>
<rect x="22" y="34" width="296" height="402" rx="12" fill="none" stroke="#B98A4B" stroke-width="1" opacity="0.35"/>
<g transform="translate(150,52) scale(0.7)"><path d="M34 62 C31 52 28 47 22 43 C15 38 10 31 7 22 C18 27 28 33 31 41 L34 46 L37 41 C40 33 50 27 61 22 C58 31 53 38 46 43 C40 47 37 52 34 62 Z" fill="#B98A4B"/></g>
<text x="170" y="120" text-anchor="middle" font-family="DejaVu Sans" font-size="11" letter-spacing="5" fill="#2A211B">KOGIA COFFEE</text>
<line x1="125" y1="134" x2="215" y2="134" stroke="#B98A4B" stroke-width="1.5"/>
<text x="170" y="188" text-anchor="middle" font-size="25" font-weight="bold" fill="#2A211B">Douceur des</text><text x="170" y="216" text-anchor="middle" font-size="25" font-weight="bold" fill="#2A211B">Dunes</text>
<text x="170" y="280" text-anchor="middle" font-family="DejaVu Sans" font-size="13" letter-spacing="3" fill="#8B7B6E">SAHARA</text>
<text x="170" y="326" text-anchor="middle" font-family="DejaVu Sans" font-size="13" letter-spacing="1" fill="#2A211B" font-style="italic">NATURELLEMENT DOUX</text>
<text x="170" y="352" text-anchor="middle" font-family="DejaVu Sans" font-size="11" fill="#8B7B6E">Torréfaction moyenne</text>
<g transform="translate(170,382)"><circle r="3" fill="#B98A4B"/><circle cx="-14" r="2" fill="#B98A4B" opacity=".5"/><circle cx="14" r="2" fill="#B98A4B" opacity=".5"/></g>
<text x="170" y="416" text-anchor="middle" font-family="DejaVu Sans" font-size="12" letter-spacing="3" fill="#2A211B">CAFÉ MOULU EN POUDRE</text>
<text x="170" y="436" text-anchor="middle" font-family="DejaVu Sans" font-size="11" letter-spacing="2" fill="#8B7B6E">250 g · TUNISIE</text>
</svg>