<svg xmlns="http://www.w3.org/2000/svg" font-family="Georgia, serif" viewBox="0 0 340 470"><rect width="340" height="470" fill="#fbf8f4" stroke="#a0552a" stroke-width="2" rx="20"/><rect width="340" height="12" fill="#a0552a" rx="6"/><rect width="296" height="402" x="22" y="34" fill="none" stroke="#a0552a" opacity=".35" rx="12"/><path fill="#a0552a" d="M173.8 95.4c-2.1-7-4.2-10.5-8.4-13.3q-7.35-5.25-10.5-14.7c7.7 3.5 14.7 7.7 16.8 13.3l2.1 3.5 2.1-3.5c2.1-5.6 9.1-9.8 16.8-13.3q-3.15 9.45-10.5 14.7c-4.2 2.8-6.3 6.3-8.4 13.3"/><text x="170" y="120" fill="#2a211b" font-family="DejaVu Sans" font-size="11" letter-spacing="5" text-anchor="middle">KOGIA COFFEE</text><path stroke="#a0552a" stroke-width="1.5" d="M125 134h90"/><text x="170" y="188" fill="#2a211b" font-size="25" font-weight="bold" text-anchor="middle">Gingembre du</text><text x="170" y="216" fill="#2a211b" font-size="25" font-weight="bold" text-anchor="middle">Sahara</text><text x="170" y="280" fill="#8b7b6e" font-family="DejaVu Sans" font-size="13" letter-spacing="3" text-anchor="middle">SAHARA</text><text x="170" y="326" fill="#2a211b" font-family="DejaVu Sans" font-size="13" font-style="italic" letter-spacing="1" text-anchor="middle">CORSÉ &amp; RELEVÉ</text><text x="170" y="352" fill="#8b7b6e" font-family="DejaVu Sans" font-size="11" text-anchor="middle">Torréfaction foncée</text><g fill="#a0552a" transform="translate(170 382)"><circle r="3"/><circle cx="-14" r="2" opacity=".5"/><circle cx="14" r="2" opacity=".5"/></g><text x="170" y="416" fill="#2a211b" font-family="DejaVu Sans" font-size="12" letter-spacing="3" text-anchor="middle">CAFÉ MOULU EN POUDRE</text><text x="170" y="436" fill="#8b7b6e" font-family="DejaVu Sans" font-size="11" letter-spacing="2" text-anchor="middle">250 g · TUNISIE</text></svg>